<svg width="80" height="80" viewBox="0 0 80 80" fill="none" xmlns="http://www.w3.org/2000/svg">
<path d="M12.4711 31.46C13.3698 31.1598 14.3305 30.9985 15.331 30.9985C19.6932 30.9985 23.3352 34.0969 24.1695 38.2153L30.3531 36.9539C28.9339 29.9548 22.7488 24.6875 15.331 24.6875C13.6312 24.6875 11.9983 24.9645 10.4707 25.4749L12.4711 31.46Z" fill="#FFCC00"/>
<path d="M5.17365 51.5006L9.35535 46.7728C7.48867 45.1191 6.31095 42.7057 6.31095 40.0168C6.31095 37.3299 7.48707 34.9175 9.35252 33.2658L5.17045 28.5374C2.00037 31.346 0 35.4484 0 40.0168C0 44.5879 2.00117 48.6916 5.17365 51.5006Z" fill="#00A0DE"/>
<path d="M24.1685 41.8265C23.3307 45.943 19.6926 49.0354 15.3316 49.0354C14.3309 49.0354 13.3673 48.874 12.469 48.5722L10.4658 54.5597C11.9938 55.0697 13.6299 55.3459 15.3316 55.3459C22.7423 55.3459 28.9267 50.0874 30.3514 43.0947L24.1685 41.8265Z" fill="#EC3413"/>
<path d="M35.7605 46.9722C35.558 46.644 35.2826 46.1191 35.1169 45.7328C34.1377 43.4594 34.0909 41.1068 34.9179 38.8482C35.827 36.3714 37.564 34.4752 39.8081 33.5096C42.6296 32.2955 45.75 32.5349 48.4541 34.1393C50.1719 35.1248 51.3897 36.6465 52.3143 38.7977L52.4002 39.0068L52.5602 39.4225C52.586 39.4895 52.6114 39.5548 52.6366 39.6172L35.7605 46.9722ZM41.3958 37.1593C39.3922 38.0204 38.3594 39.8998 38.5716 42.1035L47.059 38.4507C45.5995 36.7354 43.7 36.1669 41.3958 37.1593ZM51.3981 47.3004L48.1174 45.1071L48.1127 45.1119L47.937 44.9934C47.4305 45.8153 46.6403 46.481 45.6431 46.9133C43.746 47.7384 41.9878 47.5262 40.7253 46.4189L40.6092 46.5955C40.608 46.5934 40.6076 46.5919 40.6055 46.5919L38.4523 49.8132C38.9867 50.1847 39.5607 50.4993 40.1636 50.7507C42.5423 51.7387 44.9758 51.6931 47.3732 50.6503C49.1075 49.8988 50.4681 48.7528 51.3981 47.3004ZM58.5353 28.7655V46.6748L61.3194 47.8032L59.7374 51.4949L56.6638 50.2151C55.974 49.9165 55.5044 49.4593 55.1489 48.9433C54.8091 48.4173 54.5549 47.6955 54.5549 46.7236V28.7655H58.5353ZM65.7485 42.1124C65.7501 40.5872 66.4234 39.2197 67.4891 38.2902L64.6324 35.1048C62.6949 36.8174 61.4747 39.3198 61.4723 42.108C61.4691 44.897 62.6877 47.4021 64.6232 49.1191L67.4766 45.9306C66.4162 44.9974 65.7473 43.6339 65.7485 42.1124ZM70.824 47.1956C70.2615 47.194 69.7199 47.1011 69.2147 46.933L67.8505 50.9893C68.7828 51.3023 69.7816 51.4729 70.8196 51.4745C75.3428 51.479 79.1197 48.2696 79.9948 44.0031L75.8015 43.1468C75.3247 45.4594 73.2771 47.1972 70.824 47.1956ZM70.8365 32.7599C69.7997 32.7587 68.8013 32.9272 67.8702 33.2374L69.2225 37.2974C69.7292 37.1301 70.2708 37.0376 70.8325 37.0376C73.2913 37.04 75.3404 38.7881 75.806 41.1072L79.9997 40.2565C79.1366 35.9839 75.3633 32.7626 70.8365 32.7599Z" fill="white"/>
</svg>
