<svg width="80" height="80" viewBox="0 0 80 80" fill="none" xmlns="http://www.w3.org/2000/svg">
<path d="M21.9616 22.6562H13.6703C10.0069 22.8295 7.01222 24.305 6.14755 27.3479C5.69669 28.9348 5.44856 30.6776 5.096 32.3226C3.30369 40.6871 1.71442 49.2819 0 57.4793H64.5501C69.5404 57.4793 72.9667 56.4248 73.8928 52.4642C74.3229 50.6243 74.735 48.5402 75.1466 46.5187C76.751 38.6371 78.3567 30.756 80 22.6562H21.9616Z" fill="#B82126"/>
<path d="M55.2654 43.4615C54.3702 44.3379 51.8572 44.5868 52.1143 42.4919C52.3278 40.752 54.2221 40.3823 56.2753 40.6336C56.1226 41.5852 55.9476 42.7937 55.2654 43.4615ZM52.4375 36.6745C52.352 37.1545 52.2207 37.5888 52.1143 38.048C53.1394 37.791 56.3314 37.003 56.639 38.3711C56.7411 38.8257 56.565 39.3087 56.437 39.664C53.5504 39.3906 51.1978 39.8701 50.5791 41.9263C50.1647 43.3035 50.6255 44.6588 51.5084 45.0372C53.2086 45.7655 55.2767 44.9311 55.9926 43.7848C55.9182 44.1816 55.8478 44.5824 55.8713 45.0775H57.3661C57.3819 43.6459 57.5902 42.4872 57.8105 41.199C57.9982 40.1021 58.3513 39.0161 58.2952 38.048C58.1669 35.8307 54.4936 36.615 52.4375 36.6745ZM67.4254 44.1482C66.256 44.1733 65.6745 43.4496 65.6478 42.2496C65.6012 40.1479 66.5231 37.813 68.3949 37.6036C69.2665 37.5062 69.8975 37.7088 70.5361 37.9269C69.9499 40.2875 70.1615 44.0896 67.4254 44.1482ZM71.3037 33.0386C71.1548 34.344 70.9557 35.5994 70.6978 36.7956C66.4367 35.4469 63.8233 38.5819 63.8702 42.4514C63.8795 43.1998 64.0083 43.9419 64.4764 44.4714C65.2829 45.3837 67.5926 45.6019 68.7586 44.8351C68.9844 44.6867 69.215 44.4166 69.3647 44.2292C69.477 44.088 69.6555 43.7187 69.6876 43.8249C69.6265 44.2351 69.5349 44.6149 69.5262 45.0775H71.1018C71.4053 40.7217 72.3443 37.0012 73.0409 33.0386H71.3037ZM26.8246 43.5019C25.8952 44.4863 23.6103 44.4712 23.4312 42.815C23.3531 42.0944 23.6216 41.3388 23.7543 40.5932C23.8886 39.8386 23.9852 39.1145 24.1178 38.4519C25.0332 37.3341 27.7233 37.1992 27.9962 39.058C28.2331 40.6718 27.5943 42.6867 26.8246 43.5019ZM28.1982 36.6745C26.728 36.1222 24.936 36.7815 24.1592 37.4086C24.1618 37.4362 24.1407 37.44 24.1178 37.442C24.1311 37.4309 24.1454 37.4198 24.1592 37.4086C24.159 37.4063 24.1589 37.4042 24.1582 37.4017C24.1714 37.1319 24.2663 36.9441 24.2795 36.6745H22.7847C22.1618 40.8187 21.4232 44.8469 20.6436 48.8345H22.3807C22.6321 47.2814 22.7982 45.6431 23.1484 44.1887C23.5451 45.7184 26.1355 45.426 27.2285 44.8351C29.484 43.6155 31.2236 37.811 28.1982 36.6745ZM36.4395 39.5832H32.3593C32.4884 38.6452 33.3324 37.6141 34.6619 37.5633C35.9134 37.5154 36.8094 38.0227 36.4395 39.5832ZM34.7832 36.5129C33.528 36.6096 32.4669 36.9708 31.7129 37.7652C30.788 38.7396 30.039 40.8938 30.2585 42.8555C30.5716 45.6543 34.0563 45.5539 36.8436 44.8754C36.8909 44.3843 37.0098 43.9644 37.0859 43.5019C35.9377 43.9316 33.9441 44.5313 32.7633 43.7848C31.8716 43.221 31.8665 41.7934 32.1573 40.5528C34.0306 40.4932 35.9775 40.5046 37.8535 40.5528C37.9725 39.6734 38.3131 38.7147 38.015 37.8461C37.6219 36.6994 36.215 36.4027 34.7832 36.5129ZM19.5124 36.6745C19.4654 36.6812 19.4685 36.7383 19.472 36.7956C19.0892 39.6582 18.5713 42.3857 18.0177 45.0775H19.7548C20.1722 42.1956 20.6503 39.3746 21.2495 36.6745H19.5124ZM64.84 36.7148C63.3046 35.9473 62.0265 37.2353 61.5273 38.0075C61.6695 37.6113 61.6776 37.0808 61.81 36.6745H60.2748C59.861 39.5598 59.3618 42.36 58.78 45.0775H60.5576C60.5689 43.9638 60.7876 43.1399 60.9615 42.0475C61.3331 39.7154 61.8784 37.1578 64.5976 37.9269C64.6878 37.5324 64.7253 37.085 64.84 36.7148ZM45.3272 43.0979C45.1672 42.6842 45.1256 42.0011 45.1656 41.4819C45.2555 40.3145 45.6807 38.8933 46.3372 38.25C47.2431 37.362 49.0315 37.509 50.4578 38.0075C50.5021 37.5267 50.5987 37.098 50.6599 36.6342C48.3204 36.2521 46.1004 36.4897 44.9233 37.7248C43.7711 38.9339 43.0157 41.7129 43.5496 43.4615C44.1747 45.5076 46.9769 45.6188 49.2461 44.8351C49.3463 44.4238 49.3995 43.9653 49.4884 43.5423C48.2486 44.1865 45.8782 44.5212 45.3272 43.0979ZM44.3578 36.6745C42.8174 36.0524 41.6066 37.1037 41.0451 38.0885C41.1724 37.6503 41.2249 37.1372 41.3278 36.6745H39.7926C39.4174 39.5851 38.8641 42.3176 38.3383 45.0775H40.0756C40.319 43.4392 40.4241 41.231 40.9642 39.664C41.3959 38.4118 42.5256 37.3449 44.1557 37.9269C44.1786 37.4649 44.3109 37.1123 44.3578 36.6745ZM16.3614 33.2809C16.1132 34.8911 15.8337 36.4699 15.5534 38.048C13.7537 38.067 11.9162 38.1369 10.1804 38.0075C10.5082 36.4638 10.7433 34.8271 11.069 33.2809H9.13C8.43573 37.2193 7.80436 41.2202 7.0293 45.0775H9.00875C9.31934 43.0987 9.60969 41.0998 10.0186 39.2196C11.7065 39.178 13.7294 39.1056 15.3513 39.2601C15.0169 41.2149 14.6128 43.0999 14.301 45.0775H16.2806C16.9165 41.0811 17.5868 37.1189 18.3813 33.2809H16.3614ZM21.29 35.0585C21.6364 34.8201 22.0823 33.7333 21.5728 33.2809C21.4114 33.1377 21.1413 33.0961 20.7648 33.1598C20.4155 33.2188 20.2146 33.3374 20.0781 33.5233C19.8585 33.8223 19.6574 34.7236 19.9971 35.0585C20.3281 35.3846 21.0696 35.2102 21.29 35.0585Z" fill="white"/>
</svg>
