<svg width="58" height="47" viewBox="0 0 58 47" fill="none" xmlns="http://www.w3.org/2000/svg">
<path d="M21.6074 4.52271H37.0579V32.2846H21.6074V4.52271Z" fill="#FF5F00"/>
<path d="M11.16 46.2585V43.3156C11.16 42.1873 10.4731 41.4517 9.29587 41.4517C8.70734 41.4517 8.06966 41.6479 7.62816 42.2856C7.28496 41.746 6.79452 41.4517 6.05875 41.4517C5.56809 41.4517 5.07788 41.5987 4.68531 42.1383V41.5498H3.65527V46.2585H4.68531V43.6588C4.68531 42.8252 5.12681 42.4326 5.81365 42.4326C6.50004 42.4326 6.84368 42.8741 6.84368 43.6588V46.2585H7.87371V43.6588C7.87371 42.8252 8.36393 42.4326 9.00161 42.4326C9.68844 42.4326 10.0316 42.8741 10.0316 43.6588V46.2585H11.16V46.2585ZM26.4141 41.5498H24.7466V40.1274H23.7165V41.5498H22.7846V42.4815H23.7163V44.6399C23.7163 45.7191 24.1578 46.3565 25.3351 46.3565C25.7766 46.3565 26.2668 46.2095 26.6105 46.0133L26.316 45.1303C26.0217 45.3265 25.6785 45.3757 25.4332 45.3757C24.9427 45.3757 24.7466 45.0814 24.7466 44.5907V42.4815H26.4141V41.5498V41.5498ZM35.145 41.4515C34.5564 41.4515 34.1641 41.746 33.9188 42.1383V41.5498H32.8887V46.2585H33.9188V43.6099C33.9188 42.8252 34.262 42.3837 34.8996 42.3837C35.0958 42.3837 35.3411 42.4328 35.5373 42.4817L35.8316 41.5009C35.6354 41.4517 35.3411 41.4517 35.145 41.4517V41.4515ZM21.9507 41.9421C21.4601 41.5987 20.7735 41.4517 20.0377 41.4517C18.8606 41.4517 18.0759 42.0402 18.0759 42.9722C18.0759 43.7571 18.6645 44.1984 19.6945 44.3456L20.1849 44.3948C20.7245 44.4927 21.0188 44.6399 21.0188 44.8852C21.0188 45.2284 20.6264 45.4738 19.9396 45.4738C19.253 45.4738 18.7134 45.2284 18.37 44.9833L17.8795 45.768C18.4191 46.1604 19.1549 46.3565 19.8904 46.3565C21.2639 46.3565 22.0488 45.7191 22.0488 44.8361C22.0488 44.0022 21.4111 43.5607 20.43 43.4137L19.9396 43.3645C19.4981 43.3154 19.1549 43.2175 19.1549 42.9233C19.1549 42.5798 19.4981 42.3837 20.0377 42.3837C20.6264 42.3837 21.215 42.6288 21.5092 42.776L21.9507 41.9421V41.9421ZM49.3203 41.4517C48.7316 41.4517 48.3392 41.746 48.0939 42.1383V41.5498H47.0638V46.2585H48.0939V43.6099C48.0939 42.8252 48.4373 42.3837 49.0748 42.3837C49.2712 42.3837 49.5165 42.4328 49.7127 42.4817L50.0069 41.5009C49.8107 41.4517 49.5165 41.4517 49.3203 41.4517V41.4517ZM36.175 43.9041C36.175 45.3265 37.1559 46.3565 38.6766 46.3565C39.3632 46.3565 39.8536 46.2095 40.3441 45.8172L39.8536 44.9833C39.4613 45.2776 39.0689 45.4246 38.6274 45.4246C37.7936 45.4246 37.205 44.8361 37.205 43.9041C37.205 43.0213 37.7936 42.4326 38.6274 42.3837C39.0689 42.3837 39.4613 42.5307 39.8536 42.8252L40.3441 41.9913C39.8536 41.5987 39.3632 41.4517 38.6766 41.4517C37.1559 41.4517 36.175 42.4817 36.175 43.9041ZM45.6906 43.9041V41.5498H44.6606V42.1383C44.3172 41.697 43.8267 41.4517 43.189 41.4517C41.8648 41.4517 40.8347 42.4817 40.8347 43.9041C40.8347 45.3265 41.8648 46.3565 43.189 46.3565C43.8757 46.3565 44.3663 46.1114 44.6606 45.6699V46.2585H45.6906V43.9041V43.9041ZM41.9137 43.9041C41.9137 43.0703 42.4533 42.3837 43.3361 42.3837C44.1699 42.3837 44.7587 43.0213 44.7587 43.9041C44.7587 44.738 44.1699 45.4246 43.3361 45.4246C42.4533 45.3754 41.9137 44.738 41.9137 43.9041V43.9041ZM29.6025 41.4517C28.229 41.4517 27.2479 42.4326 27.2479 43.9041C27.2479 45.3757 28.2288 46.3565 29.6514 46.3565C30.338 46.3565 31.0248 46.1604 31.5644 45.7191L31.0738 44.9833C30.6814 45.2776 30.191 45.4738 29.7006 45.4738C29.0629 45.4738 28.4252 45.1795 28.2779 44.3454H31.7606V43.9533C31.8098 42.4326 30.9268 41.4517 29.6022 41.4517H29.6025ZM29.6025 42.3345C30.2399 42.3345 30.6816 42.7271 30.7795 43.4628H28.3271C28.4252 42.8252 28.8667 42.3345 29.6025 42.3345ZM55.1571 43.9041V39.6859H54.127V42.1383C53.7836 41.697 53.2932 41.4517 52.6555 41.4517C51.3312 41.4517 50.3012 42.4817 50.3012 43.9041C50.3012 45.3265 51.3312 46.3565 52.6555 46.3565C53.3423 46.3565 53.8328 46.1114 54.127 45.6699V46.2585H55.1571V43.9041V43.9041ZM51.3804 43.9041C51.3804 43.0703 51.9197 42.3837 52.8028 42.3837C53.6366 42.3837 54.2251 43.0213 54.2251 43.9041C54.2251 44.738 53.6366 45.4246 52.8028 45.4246C51.9197 45.3754 51.3804 44.738 51.3804 43.9041V43.9041ZM16.9476 43.9041V41.5498H15.9176V42.1383C15.5741 41.697 15.0837 41.4517 14.446 41.4517C13.1217 41.4517 12.0917 42.4817 12.0917 43.9041C12.0917 45.3265 13.1217 46.3565 14.446 46.3565C15.1329 46.3565 15.6233 46.1114 15.9176 45.6699V46.2585H16.9476V43.9041V43.9041ZM13.1217 43.9041C13.1217 43.0703 13.6613 42.3837 14.5441 42.3837C15.378 42.3837 15.9667 43.0213 15.9667 43.9041C15.9667 44.738 15.378 45.4246 14.5441 45.4246C13.6613 45.3754 13.1217 44.738 13.1217 43.9041V43.9041Z" fill="white"/>
<path d="M22.5878 18.404C22.5878 12.7634 25.2364 7.76026 29.3074 4.52292C26.3156 2.1686 22.5389 0.746216 18.4187 0.746216C8.65758 0.746216 0.760742 8.64305 0.760742 18.404C0.760742 28.1647 8.65758 36.0618 18.4185 36.0618C22.5386 36.0618 26.3154 34.6394 29.3074 32.2848C25.2364 29.0967 22.5878 24.0446 22.5878 18.404V18.404Z" fill="#EB001B"/>
<path d="M57.9021 18.404C57.9021 28.1647 50.0053 36.0618 40.2443 36.0618C36.1242 36.0618 32.3475 34.6394 29.3555 32.2848C33.4756 29.0477 36.0753 24.0446 36.0753 18.404C36.0753 12.7634 33.4264 7.76026 29.3555 4.52292C32.3473 2.1686 36.1242 0.746216 40.2443 0.746216C50.0053 0.746216 57.9023 8.69221 57.9023 18.404H57.9021Z" fill="#F79E1B"/>
</svg>
