<svg width="80" height="80" viewBox="0 0 80 80" fill="none" xmlns="http://www.w3.org/2000/svg">
<path d="M39.6108 27.4876L34.2661 52.475H27.8014L33.1466 27.4876H39.6108ZM66.8075 43.6223L70.2098 34.239L72.1679 43.6223H66.8075ZM74.0225 52.475H80L74.7778 27.4876H69.264C68.0214 27.4876 66.9738 28.2081 66.5102 29.3192L56.8105 52.475H63.5995L64.9472 48.7433H73.2396L74.0225 52.475ZM57.1471 44.3175C57.1752 37.7229 48.0308 37.3576 48.0921 34.411C48.1117 33.5157 48.966 32.562 50.833 32.3181C51.7586 32.1989 54.3129 32.1022 57.2084 33.4364L58.3408 28.1356C56.7857 27.573 54.7844 27.0312 52.2942 27.0312C45.9036 27.0312 41.4081 30.4258 41.3721 35.2905C41.3311 38.8879 44.5834 40.8937 47.0287 42.0919C49.5499 43.3165 50.3946 44.1016 50.3822 45.1959C50.3648 46.8723 48.3719 47.6148 46.5162 47.6429C43.2644 47.6934 41.3794 46.7639 39.8772 46.0636L38.7037 51.5415C40.2167 52.2339 43.0042 52.8364 45.8907 52.8673C52.6848 52.8673 57.1269 49.5127 57.1471 44.3175ZM30.3737 27.4876L19.8995 52.475H13.0672L7.9125 32.5333C7.60002 31.307 7.32745 30.8563 6.3771 30.3381C4.82258 29.494 2.25646 28.7043 0 28.2132L0.152868 27.4876H11.1525C12.5536 27.4876 13.8141 28.42 14.135 30.0341L16.858 44.4945L23.5824 27.4876H30.3737Z" fill="white"/>
</svg>
